<svg xmlns="http://www.w3.org/2000/svg" width="528.89" height="152.327" viewBox="0 0 528.89 152.327">
  <g id="Groupe_49" data-name="Groupe 49" transform="translate(-625.941 -4943.838)">
    <g id="Groupe_48" data-name="Groupe 48" transform="translate(625.941 4957)">
      <g id="Groupe_73" data-name="Groupe 73">
        <text id="The_Artiz_ans" data-name="The Artiz’ans" transform="translate(0 70.838)" font-size="83" font-family="Bressay-Bold, Bressay" font-weight="700"><tspan x="0" y="0">The A</tspan><tspan y="0" letter-spacing="0.02em">r</tspan><tspan y="0">tiz</tspan><tspan y="0" letter-spacing="-0.079em">’</tspan><tspan y="0">ans</tspan></text>
        <text id="The_team_behind" data-name="The team behind" transform="translate(0 127.165)" font-size="39" font-family="Bressay-Bold, Bressay" font-weight="700"><tspan x="0" y="0">The team behind</tspan></text>
        <path id="Tracé_873" data-name="Tracé 873" d="M632.61,120.056l3.762-2.9c-1.334-2.467-3.627-5.131-7.631-4.13-2.66.666-6.13,3.584-9.338,6.965-.656.691-1.071.64-1.42.485V113.9h-8.727s2.409.236,2.409,3.835l-.143,31.3a2.015,2.015,0,0,1-2.266,2.18h10.889a2.061,2.061,0,0,1-2.125-2.224c0-4.408-.019-25.306-.019-26.8,1.17-1.276,4.6-6.169,8-6.373a6.093,6.093,0,0,1,6.613,4.245" transform="translate(-124.141 -22.985)"/>
        <path id="Tracé_874" data-name="Tracé 874" d="M527.936,104.753c0,.083-.006.168-.008.248a3.253,3.253,0,0,1-.3,1.143,3.311,3.311,0,0,1-6.3-1.143c-.006-.08-.008-.165-.008-.248a3.477,3.477,0,0,1,.036-.51,3.311,3.311,0,0,1,6.544,0,3.1,3.1,0,0,1,.041.51" transform="translate(-106.222 -20.669)"/>
        <path id="Tracé_875" data-name="Tracé 875" d="M530.118,151.054a3.029,3.029,0,0,1-3.031-3.03c0-8.517.018-27.7.018-32.319,0-1.051.451-2.718,2.17-2.718H518.16c2.355,0,2.312,2.3,2.313,2.664.064,16.755.144,26.906.145,32.374a3.029,3.029,0,0,1-3.03,3.03h-.236v.159h12.929v-.159Z" transform="translate(-105.415 -23.022)"/>
        <path id="Tracé_876" data-name="Tracé 876" d="M658.5,104.583a3.323,3.323,0,0,1-6.624.377,3.489,3.489,0,0,1-.022-.377,3.443,3.443,0,0,1,.022-.377,3.323,3.323,0,0,1,6.624.377" transform="translate(-132.82 -20.632)"/>
        <path id="Tracé_877" data-name="Tracé 877" d="M660.75,151.059a3.039,3.039,0,0,1-3.042-3.042c0-8.548.018-27.806.018-32.44,0-1.054.453-2.728,2.178-2.728H648.748c2.364,0,2.319,2.311,2.321,2.675.064,16.817.145,27.005.146,32.493a3.04,3.04,0,0,1-3.042,3.042h-.236v.16h12.976v-.16Z" transform="translate(-132.022 -22.994)"/>
        <path id="Tracé_878" data-name="Tracé 878" d="M597.53,104.583c0,.127-.008.253-.019.377a3.325,3.325,0,0,1-6.607,0,3.5,3.5,0,0,1-.022-.377,3.457,3.457,0,0,1,.022-.377,3.325,3.325,0,0,1,6.607,0c.011.124.019.248.019.377" transform="translate(-120.397 -20.632)"/>
        <path id="Tracé_879" data-name="Tracé 879" d="M599.721,151.059a3.039,3.039,0,0,1-3.042-3.042c0-8.548.018-27.806.018-32.44,0-1.054.453-2.728,2.178-2.728H587.719c2.364,0,2.319,2.311,2.321,2.675.064,16.817.145,27.005.146,32.493a3.04,3.04,0,0,1-3.042,3.042h-.237v.16h12.976v-.16Z" transform="translate(-119.587 -22.994)"/>
        <path id="Tracé_880" data-name="Tracé 880" d="M477.288,120.27l3.762-2.9c-1.334-2.467-3.627-5.131-7.631-4.13-2.66.666-6.13,3.584-9.338,6.965-.655.691-1.071.64-1.42.485v-6.574h-8.727s2.409.236,2.409,3.835l-.143,31.3a2.015,2.015,0,0,1-2.266,2.18h10.889A2.061,2.061,0,0,1,462.7,149.2c0-4.408-.019-25.306-.019-26.8,1.17-1.276,4.6-6.169,8-6.373a6.093,6.093,0,0,1,6.613,4.245" transform="translate(-92.493 -23.029)"/>
        <path id="Tracé_881" data-name="Tracé 881" d="M432.032,151.481H443a2.071,2.071,0,0,1-2.33-2.241c-.012-6.722-.147-13.619-.147-21.01,0-7.727-2.913-15.632-14.295-15.632s-14.8,9.584-14.59,12.712c1.01.748,5.349.386,5.349-3.061,0-3.139.1-9.295,9.39-9.295,7.1,0,7.548,7.072,7.63,8.78.018.375.026,1.937.028,4.147-.022,2.558-1.969,4.081-5.2,4.89-10.757,2.694-17.794,4.487-17.794,11.948,0,5.927,6.33,8.762,12.9,8.762,5.283,0,8.7-5.592,10.054-5.606,0,1.437-.006,2.595-.006,3.32,0,.884-.225,2.286-1.956,2.286m-7.575-.5c-5.709,0-6.683-5.312-6.683-8.4,0-6.536,4.443-9.7,10.706-11.373,2.587-.69,4.228-1.278,5.555-1.766,0,3.726-.018,8.194-.029,12.016-.254,1.8-4.48,9.52-9.549,9.52" transform="translate(-83.753 -22.943)"/>
        <path id="Tracé_882" data-name="Tracé 882" d="M493.572,99.342c0-1.014-.348-1.12-1-1.12h8.547c-1.045,0-1.14.719-1.142,1.069-.014,3.664-.027,7.252-.039,10.694h5.992v.22h-.007a6.007,6.007,0,0,0-6.006,5.987c-.041,12.408-.067,22.014-.067,24.834,0,4.264,1.713,6.478,4.441,6.478,3.577,0,4.227-2.547,4.25-2.547h.158a5.509,5.509,0,0,1-5.535,3.6c-6.555,0-9.568-4.993-9.568-13.316,0-3.156-.019-34.151-.019-35.895" transform="translate(-100.365 -20.014)"/>
        <path id="Tracé_883" data-name="Tracé 883" d="M577.241,142.348c-.4,3.184-.741,5.9-1.1,8.752H548.276l22.468-38.371h6.009c-7.075,12.257-14.043,24.324-21.149,36.633,4.887,0,9.455.1,14.011-.078a5.278,5.278,0,0,0,2.975-1.672c1.561-1.528,2.914-3.269,4.651-5.263" transform="translate(-111.716 -22.969)"/>
        <path id="Tracé_884" data-name="Tracé 884" d="M537.354,120.349l1.169-7.6h26.488L542.84,151.167h-6.3L558,114.463c-4.547,0-8.783-.161-12.992.1-1.256.078-2.562,1.19-3.626,2.086a42.592,42.592,0,0,0-3.5,3.689c-.175,0-.352.008-.529.013" transform="translate(-109.324 -22.975)" fill="#007ec4"/>
        <rect id="Rectangle_36" data-name="Rectangle 36" width="308.765" height="4.262" transform="translate(1.096 85.268)" fill="#c29b40"/>
      </g>
    </g>
  </g>
</svg>
